<?xml version="1.0" encoding="iso-8859-1"?>
<!-- Uploaded to: SVG Repo, www.svgrepo.com, Generator: SVG Repo Mixer Tools -->
<!DOCTYPE svg PUBLIC "-//W3C//DTD SVG 1.1//EN" "http://www.w3.org/Graphics/SVG/1.1/DTD/svg11.dtd">
<svg fill="#000000" height="800px" width="800px" version="1.1" id="Capa_1" xmlns="http://www.w3.org/2000/svg" xmlns:xlink="http://www.w3.org/1999/xlink" 
	 viewBox="0 0 491.793 491.793" xml:space="preserve">
<g>
	<path d="M275.154,100.996c27.845,0,50.498-22.653,50.498-50.498C325.652,22.653,302.999,0,275.154,0
		c-27.845,0-50.498,22.653-50.498,50.498C224.656,78.343,247.309,100.996,275.154,100.996z M275.154,8.5
		c23.158,0,41.998,18.84,41.998,41.998s-18.84,41.998-41.998,41.998s-41.998-18.84-41.998-41.998S251.996,8.5,275.154,8.5z"/>
	<path d="M302.896,317.539c-2.276,0.573-3.657,2.883-3.083,5.159l7.693,30.543c0.485,1.928,2.216,3.213,4.118,3.213
		c0.343,0,0.693-0.042,1.041-0.13c2.276-0.573,3.657-2.883,3.083-5.159l-7.693-30.543
		C307.482,318.347,305.175,316.966,302.896,317.539z"/>
	<path d="M474.787,288.928h-25.882c13.27-44.81,10.408-82.41-8.53-111.81c-14.835-23.028-36.213-35.905-52.508-42.841
		c-0.168-3.529-1.586-7.008-4.287-9.686c-5.726-5.678-15.003-5.64-20.681,0.088l-31.166,31.431l-7.004-6.479
		c-1.822-26.034-23.252-46.174-49.575-46.174c-24.021,0-45.234,18.381-49.344,42.756c-0.039,0.23-0.059,0.464-0.059,0.697
		l-0.264,116.341L63.021,427.078H18.811c-9.956,0-18.055,8.1-18.055,18.055v14.564c0,9.955,8.1,18.055,18.055,18.055h88.931
		c9.956,0,18.055-8.1,18.055-18.055v-14.564c0-9.955-8.1-18.055-18.055-18.055h-3.089l116.906-118.172l-45.301,137.51
		c-2.791,8.466-2.117,17.511,1.896,25.47c4.014,7.958,10.886,13.877,19.353,16.666c3.455,1.139,6.962,1.679,10.416,1.679
		c14.017-0.001,27.101-8.909,31.722-22.93l32.574-98.868l25.356,98.316c3.802,14.746,17.08,25.044,32.29,25.044
		c2.805,0,5.617-0.357,8.355-1.065c8.632-2.226,15.881-7.679,20.411-15.355c4.529-7.677,5.797-16.658,3.57-25.29L322.957,297.9
		c1.271-4.442,1.922-9.043,1.922-13.697l0-40.36l32.142-34.959c8.031-8.693,7.518-22.348-1.159-30.451l-2.645-2.447l17.499-17.647
		c25.635,11.127,75.309,44.554,48.927,130.59h-31.849c-8.96,0-16.25,7.29-16.25,16.25V446.17c0,8.96,7.29,16.25,16.25,16.25h86.994
		c8.96,0,16.25-7.29,16.25-16.25V305.178C491.037,296.218,483.748,288.928,474.787,288.928z M234.25,147.289
		c3.517-19.84,21.417-35.332,40.904-35.332c18.181,0,33.551,11.587,39.048,27.935l-21.638-20.018
		c-4.013-3.746-9.244-5.81-14.731-5.81c-5.964,0-11.719,2.5-15.787,6.859c-8.125,8.702-7.654,22.393,1.061,30.529l38.188,35.354
		l-67.29,67.854L234.25,147.289z M117.297,445.133v2.789H37.014c-2.347,0-4.25,1.902-4.25,4.25c0,2.348,1.903,4.25,4.25,4.25h80.284
		v3.275c0,5.268-4.287,9.555-9.555,9.555H18.811c-5.269,0-9.555-4.286-9.555-9.555v-14.564c0-5.269,4.287-9.555,9.555-9.555h88.931
		C113.011,435.578,117.297,439.864,117.297,445.133z M74.99,427.078l232.547-234.494l3.181,2.944l-29.127,31.599
		c-3.795,4.064-5.824,9.323-5.788,14.862L92.695,427.078H74.99z M255.636,304.136l4.785,18.553
		c-12.207-4.663-21.602-14.924-25.052-27.742l42.794-43.258c1.126,2.198,2.616,4.219,4.475,5.955
		c2.508,2.341,5.493,4.024,8.719,4.958c-1.116-0.113-2.243-0.178-3.384-0.178c-2.804,0-5.615,0.358-8.353,1.065
		C261.801,268.084,251.042,286.318,255.636,304.136z M231.572,464.641c-4.292,13.023-18.382,20.127-31.405,15.839
		c-0.511-0.169-1.002-0.377-1.497-0.575l32.671-99.498c0.732-2.23-0.482-4.632-2.712-5.364c-2.228-0.732-4.631,0.482-5.364,2.712
		l-32.02,97.516c-2.229-2.023-4.105-4.443-5.501-7.212c-2.991-5.931-3.493-12.672-1.413-18.981l46.546-142.217
		c6.44,12.586,18.058,22.001,32.047,25.535l5.365,20.802L231.572,464.641z M351.311,471.054c-3.376,5.721-8.778,9.785-15.212,11.444
		c-2.046,0.527-4.143,0.795-6.233,0.795c-11.332,0-21.225-7.676-24.059-18.667l-41.94-162.613
		c-3.424-13.278,4.595-26.868,17.876-30.294c2.045-0.527,4.142-0.795,6.23-0.795c11.333,0,21.228,7.677,24.063,18.669
		l41.935,162.613C355.631,458.64,354.686,465.333,351.311,471.054z M316.379,278.318c-4.581-7.453-11.944-12.846-20.48-14.936
		c0.488,0.033,0.976,0.069,1.469,0.069h0.001c5.964,0,11.718-2.5,15.808-6.882l3.202-3.482L316.379,278.318z M350.77,203.123
		l-43.828,47.67c-2.503,2.683-5.902,4.159-9.572,4.159c0,0,0,0-0.001,0c-3.326,0-6.498-1.251-8.93-3.521
		c-2.557-2.387-4.03-5.626-4.15-9.121c-0.12-3.494,1.128-6.826,3.534-9.401l32.02-34.736c1.588-1.724,1.482-4.407-0.238-6
		l-50.708-46.944c-5.276-4.926-5.562-13.227-0.635-18.504c2.504-2.683,5.904-4.159,9.574-4.159c3.325,0,6.497,1.251,8.944,3.536
		l63.297,58.559C355.33,189.566,355.645,197.847,350.77,203.123z M337.976,161.886l30.959-31.222
		c2.377-2.396,6.262-2.414,8.66-0.037c2.398,2.378,2.415,6.264,0.038,8.662l-30.659,30.92L337.976,161.886z M377.105,151.894
		l6.564-6.62c0.81-0.817,1.49-1.713,2.067-2.654c29.182,12.835,83.741,50.504,54.281,146.309h-11.494
		C454.264,201.391,405.407,165.1,377.105,151.894z M387.793,297.428h86.994c4.273,0,7.75,3.477,7.75,7.75v42.248H380.043v-42.248
		C380.043,300.904,383.52,297.428,387.793,297.428z M474.787,453.92h-86.994c-4.273,0-7.75-3.477-7.75-7.75v-90.244h102.494v90.244
		C482.537,450.443,479.061,453.92,474.787,453.92z"/>
	<path d="M463.016,360.022c-8.96,0-16.25,7.29-16.25,16.25c0,8.96,7.29,16.25,16.25,16.25c8.961,0,16.25-7.29,16.25-16.25
		C479.266,367.311,471.976,360.022,463.016,360.022z M463.016,384.022c-4.273,0-7.75-3.477-7.75-7.75c0-4.273,3.477-7.75,7.75-7.75
		c4.273,0,7.75,3.477,7.75,7.75C470.766,380.545,467.289,384.022,463.016,384.022z"/>
</g>
</svg>